<svg xmlns="http://www.w3.org/2000/svg" xmlns:xlink="http://www.w3.org/1999/xlink" baseProfile="tiny-ps" version="1.2" viewBox="0 0 300 300"><title>Lazuardy</title><g><g fill="#fefefe"><path d="M0 1500V0h3000v3000H0V1500z" transform="matrix(.1 0 0 -.1 0 300)"/></g><g fill="#cecece"><path d="M0 1500V0h3000v3000H0V1500zm2050 40v-150h-10c-5 0-10 7-10 15 0 19-9 19-34 0l-20-15h-73l-26 26-26 25-6 30-7 29 12 35 12 35 21 15 21 15h84l12-15c7-8 16-15 21-15h9v120h20v-150zm-1300 5v-135h130v-20H730v290h20v-135zm330-50v-105h-10c-5 0-10 7-10 16v16l-25-16-24-16h-64l-19 17-18 16v44l18 16 19 17 56 11 57 12v57H930v20h150v-105zm186 90c-3-8-30-48-61-88-30-41-55-77-55-80 0-4 27-7 60-7h60v-20h-162l6 15c3 8 30 48 61 88 30 41 55 77 55 80 0 4-25 7-55 7h-55v20h152l-6-15zm54-62v-76l17-19 16-18h56l15 22 16 22v146h20v-210h-9c-5 0-11 6-14 13l-4 12-14-12-13-13h-66l-20 20-20 20v170h20v-77zm339 51 21-27v-157h-30v31l-22-15-22-16h-65l-15 16-16 15v48l15 15c16 16 30 21 88 31l37 6v17c0 41-56 56-97 27l-22-15-6 9-5 10 22 15 22 16h75l20-26zm94 14 5-13 13 13c7 6 21 12 31 12h18v-20h-39l-15-22-16-22v-146h-20v210h9c5 0 11-6 14-12zm383-73c17-44 36-81 41-82l9-3 29 81c28 77 40 97 51 86 3-2-20-68-52-146l-56-141h-68v20h50l12 26 12 26-21 57c-11 31-30 80-42 109l-21 54 12-4 12-4 32-79zm-244 42-22-23v-81l23-21 23-22h28c39 0 61 15 76 49l12 31-6 25c-4 14-15 34-26 45l-20 20h-67l-21-23zm-897-64c-16-3-36-10-43-16l-13-10 3-26 3-26 36-3 37-3 21 27c11 15 21 35 21 45v19l-17-1c-10-1-31-4-48-6zm610 2c-5-2-22-6-37-9l-27-6-6-21-7-20 12-14 12-15h65l16 18 17 19v53l-17-1c-10 0-22-2-28-4z" transform="matrix(.1 0 0 -.1 0 300)"/></g><g fill="#a5a5a5"><path d="M0 1500V0h3000v3000H0V1500zm750 55v-135h130v-30H720v143c0 137 3 157 22 157h8v-135zm1300-15v-150h-10c-5 0-10 7-10 15v15l-25-16-25-16h-34c-45 0-72 16-92 54l-16 31 5 39 5 40 17 18c10 11 32 24 50 30l33 11 37-16c21-8 39-15 41-15s4 25 4 55v55h20v-150zm-419 60c5 0 18-9 29-20l20-20v-170h-14c-8 0-16 6-19 13l-4 12-16-13-16-14h-73l-15 15-15 15v56l20 17 21 16 50 7 51 7v17c0 25-20 42-49 42h-24l-19-17-18-17-10 10-10 10 17 16c20 18 52 27 71 22 8-2 18-4 23-4zm-551-105v-105h-9c-5 0-11 5-13 11l-4 12-21-12c-12-6-37-11-57-11h-35l-15 16-16 15v22c0 42 27 61 103 72l48 7-3 27-3 26-62 3-63 3v19h150v-105zm190 94c0-5-27-46-60-90l-61-79h121v-30h-160v11c0 5 27 46 60 89s60 81 60 84-25 6-55 6h-55v20h150v-11zm50-66v-76l17-19 16-18h22c11 0 30 6 40 14l20 14 3 81 4 81h18v-210h-9c-5 0-11 6-14 13l-4 12-14-12-13-13h-73l-19 21-19 21-4 84-3 84h32v-77zm500 67c0-4-11-11-25-14l-26-7-9-25c-6-14-10-54-10-90v-64h-20v205l45 2 45 1v-8zm319-75c18-47 36-83 39-80 4 3 20 40 37 82l31 77 12 4 12 4v-9c0-5-24-69-54-143l-54-135-41-3-41-3v21h58l12 30 12 30-37 92c-20 51-39 99-42 106l-5 12h28l33-85zm-244 40-25-24v-72l25-24 24-25h50l27 24 28 23v76l-28 23-27 24h-50l-24-25zm-304-65c-18-4-41-15-49-24l-17-16 11-18 11-17 31-3 31-3 20 20 21 21v50l-12-1c-7-1-28-5-47-9zm-594 0c-21-4-43-12-48-17l-11-11 4-23 3-24 36-3 37-3 21 27c11 15 21 35 21 45v19l-12-1c-7-1-30-5-51-9z" transform="matrix(.1 0 0 -.1 0 300)"/></g><g fill="#6e6e6e"><path d="M0 1500V0h3000v3000H0V1500zm750 55v-135h140v-30H720v300h30v-135zm1300-15v-150h-15c-8 0-15 5-15 10v11l-31-17-31-16-34 6-33 7-25 30-26 31v86l26 31 25 30 34 7 34 6 30-15 31-15v108h30v-150zm-387 39 17-21v-168h-15c-8 0-15 4-15 9v10l-35-15c-47-19-62-18-90 11-31 30-31 49-2 79l24 24 52 7 52 7-3 21-3 22-28 9-28 10-17-12c-27-19-42-25-49-18-8 8 17 36 42 47l20 8 30-4 30-5 18-21zm164 14 4-11-28-7c-39-9-43-19-43-107v-78h-30v209l30-1c17-1 33 2 37 6 9 9 26 3 30-11zm-747-98v-105h-15c-8 0-15 4-15 9v9l-30-15-30-15-30 7-30 7-10 18c-6 10-10 28-10 39v21l19 19 19 19 51 7 51 7v48H930v30h150v-105zm190 93c0-6-25-44-55-84s-55-76-55-79 25-5 55-5h55v-30h-160v12c0 6 25 44 55 84s55 76 55 79-22 5-50 5h-50v30h150v-12zm50-63v-75l20-20 20-20h37l19 21 19 21 3 74 4 74h18v-210h-10c-5 0-10 4-10 9v10l-27-15c-16-7-36-14-46-14h-19l-29 29-29 29v162h30v-75zm821-10 32-86 7 8c4 4 20 43 36 86l29 77h33l-57-142-57-143-42-3-42-3v20l27 3 28 3 13 27 12 27-40 100c-22 56-40 104-40 106 0 3 6 5 14 5h14l33-85zm-246 40-25-24v-69l19-23 18-23h76l18 23 19 23v69l-25 24-24 25h-52l-24-25zm-299-65-39-7-13-18-13-18 10-18 10-19h56l21 23 22 23v22c0 12-3 21-7 21-5-1-26-5-47-9zm-594-2c-52-9-62-14-62-37s20-41 46-41h22l22 18 22 18-4 25-3 25-43-8z" transform="matrix(.1 0 0 -.1 0 300)"/></g><g fill="#363636"><path d="M0 1500V0h3000v3000H0V1500zm760 55v-135h130v-30H720v300h40v-135zm1300-15v-150h-40v19l-27-15c-16-7-41-14-56-14h-29l-34 34-34 34v94l34 34 34 34h68l22-16 22-15v111h40v-150zm-972-42 3-108h-41v21l-22-15-22-16h-52l-22 16-22 15v68l22 15 22 16 48 6 48 7v47H930v41l78-3 77-3 3-107zm182 94v-18l-56-75-55-74 55-3 56-3v-29h-160v13c0 8 25 47 56 88l55 74-48 3c-26 2-52 7-57 12l-8 8 6 11 7 11h149v-18zm50-51v-70l10-25 10-26h68l10 13 11 13 3 79 3 80h30l3-108 3-109-23 3c-13 1-35-1-51-6l-27-7-29 12-28 11-12 25-11 25v73c0 70 4 86 22 86h8v-69zm334 48 26-20v-179h-15c-8 0-15 4-15 9v10l-27-15c-16-7-38-14-49-14h-21l-27 21-26 20v46l23 21 23 22 47 6c52 7 60 14 51 38l-6 16-24 6-24 6-25-16c-30-20-45-20-45-1v14l28 15c15 8 39 15 53 16h26l27-21zm100 12 6-9 30 11 29 11 7-7c3-3 4-13 1-22l-6-15h-19c-10 0-23-5-30-12l-12-12v-156h-40v103c0 57 3 107 7 110 9 10 21 9 27-2zm353-3c6-7 23-46 38-86l27-74 8 9c4 4 20 41 36 82l28 73 13 5c8 3 16 3 19 1 3-3-21-71-53-152l-58-146h-85v30h57l11 24 10 23-39 98c-21 53-39 103-39 111 0 17 14 18 27 2zm-193-29c-23-12-44-49-44-78 0-10 9-30 21-45l20-26h69l20 20 20 20v68l-17 20-18 21-25 5-25 5-21-10zm-942-89c-12-5-25-17-29-26l-6-16 16-15 15-16 25 7c33 8 57 32 57 57v19l-27-1c-16 0-38-4-51-9zm598 1-25-7-3-23-4-24 14-8c7-5 21-9 31-9h18l24 25c14 13 25 31 25 40v15l-27-1c-16-1-39-4-53-8z" transform="matrix(.1 0 0 -.1 0 300)"/></g><g><path d="M0 1500V0h3000v3000H0V1500zm2055 39v-154l-17-3-18-3v32l-22-15-22-16h-61l-32 20-32 19-10 38-11 37 10 38 10 37 28 21 27 22 40-4c22-3 48-8 58-12l17-8v49c0 51 6 66 24 60l11-4v-154zm-1295 16v-135h130v-40H720v310h40v-135zm330-55v-111l-17-6-17-7-4 12-3 11-25-10c-14-5-38-9-54-9h-29l-20 26c-26 33-26 45-1 77l21 26 37 7c20 3 45 8 55 11l17 4v39H920v13c0 24 12 27 92 27h78v-110zm187 94c2-5-23-46-56-90l-60-79 60-3 60-3-3-17-3-17h-168l-4 11c-2 5 23 46 56 90l60 79-55 3-54 3v40l82-3 81-3 4-11zm51-69 3-79 11-13 10-13h57l11 19 10 20v151h40v-219l-10-6-11-7-14 12-13 11-7-11-6-10h-70l-24 25-25 24v182l18-3 17-3 3-80zm332 65 20-20v-190h-30v31l-22-15-22-16h-66l-20 20-20 20v50l19 19 20 20 38 6c21 4 46 9 55 12l18 4-10 20-11 19h-68l-9-15-8-16-17 7c-24 9-21 19 9 43l27 21h77l20-20zm100 8v-12l12 12c7 7 22 12 35 12h23v-40h-49l-11-19-10-20v-152l-17 3-18 3-3 113-3 112h41v-12zm383-74 34-87 34 87 34 86h35l-1-12c0-7-26-76-58-153l-58-140-41-3-42-3v41h60l6 26 7 26-36 91c-20 51-39 100-43 110l-6 17h40l35-86zm-248 26-19-21 1-35 1-35 18-20 17-19h66l20 26 21 27v44l-21 27-20 26h-66l-18-20zm-908-67-27-4-10-19-10-19 16-16 16-16 22 7c11 3 29 13 39 22l17 15v37l-17-1c-10-1-30-4-46-6zm594-2c-13-3-29-14-35-24l-11-18 19-15 20-14 20 6c27 8 42 24 51 52l6 22-23-1c-13-1-34-4-47-8z" transform="matrix(.1 0 0 -.1 0 300)"/></g></g></svg>