<svg xmlns="http://www.w3.org/2000/svg" width="1000" height="1000"><path d="M0 0h1000v1000H0z"/><path fill="#F2F2F2" d="M674 436h11v102h-10c-2.047-2.047-1.7-6.304-2-9l-1.652 1.426c-9.91 8.181-18.5 9.757-31.348 8.574-9.56-1.975-16.553-8.27-22.184-15.996-6.34-10.832-6.38-22.242-4.214-34.375 2.794-9.205 10.031-17.09 18.386-21.734 7.98-3.549 18.227-4.567 26.633-2.137 5.257 2.251 10.322 5.185 14.379 9.242z"/><path fill="#F0F0F0" d="M309 465h53v73h-11l-1-8-1.687 1.207C338.283 538.17 330.45 540.392 318 539c-5.784-1.77-10.55-5.43-13.965-10.426-2.486-6.182-2.087-13.505-.437-19.886 3.14-6.543 10.87-10.34 17.402-12.688 2.086-.413 4.184-.766 6.29-1.07l3.6-.528 3.735-.527c1.24-.182 2.48-.364 3.758-.55C347.543 492 347.543 492 351 492v-16h-42z"/><path fill="#F4F4F4" d="M548.879 467.371c4.741 3.641 8.809 8.068 11.121 13.629.24 2.645.24 2.645.227 5.687v3.457l-.032 3.715-.008 3.817q-.016 5.01-.05 10.022c-.02 3.412-.03 6.824-.04 10.236Q560.065 527.966 560 538h-10l-1-9-3.062 2.813c-8.48 7.293-18.16 7.975-28.938 7.187-7.009-1.779-11.466-6.855-15.137-12.86-2.048-5.078-1.897-11.492.082-16.562 4.292-7.18 10.316-10.835 18.055-13.578 4.407-.991 8.839-1.636 13.313-2.25l3.533-.523c4.44-.645 8.66-1.227 13.154-1.227-.114-4.656-.277-8.681-3.25-12.437-5.345-4.981-10.528-5.003-17.582-4.875-4.552.449-6.608 1.434-10.168 4.312-1.58 1.94-2.756 3.81-4 6-3.958-.565-6.666-1.809-10-4 2.391-7.199 8.51-11.959 15.063-15.5 8.949-3.501 20.56-3.016 28.816 1.871"/><path fill="#030303" d="M660.71 476.813c5.566 2.887 9.5 6.725 12.372 12.265 2.444 7.78 2.345 17.627-.832 25.172-1.125 2.031-1.125 2.031-2.25 3.75l-1.75 2.75c-5.71 5.71-11.534 8.364-19.562 8.5-8.35-.11-13.972-3.393-19.688-9.25-4.665-6.138-5.198-10.752-5.25-18.312l-.062-2.225c-.058-8.134 2.996-13.807 8.406-19.733 2.8-2.541 5.321-3.558 8.906-4.73 6.972-2.324 13.104-1.133 19.71 1.813"/><path fill="#F3F3F3" d="M691 465h11c5.098 10.946 9.647 22.041 13.625 33.438 1.551 4.425 3.256 8.544 5.46 12.675 1.69 3.486 2.785 7.19 3.915 10.887 2.486-2.486 3.155-4.705 4.375-8a593 593 0 0 1 5.474-14.118c1.308-3.275 2.594-6.558 3.878-9.843l1.437-3.676 2.205-5.648q1.083-2.775 2.17-5.55l1.288-3.3c.955-2.332 2.045-4.61 3.173-6.865h11c-1.934 7.093-4.502 13.63-7.46 20.355-1.493 3.534-2.79 7.083-4.04 10.707-1.992 5.72-4.34 11.157-6.973 16.61-1.612 3.512-3.047 7.067-4.467 10.66a625 625 0 0 1-3.208 7.895C729.37 542.087 725.057 552.975 721 564h-27v-9h19l1-5c1.265-2.84 2.645-5.602 4.04-8.379 1.06-2.893 1.031-3.808-.04-6.621l-.613-2.008c-1.595-4.83-3.369-9.552-5.29-14.262-1.222-3.04-2.377-6.102-3.534-9.168-1.541-4.03-3.17-7.968-5-11.875-2.422-5.2-4.415-10.513-6.39-15.894-1.396-3.786-2.871-7.494-4.548-11.168C691 467 691 467 691 465"/><path fill="#EAEAEA" d="M430 465h11l.028 4.678c.04 5.737.106 11.473.18 17.21q.042 3.72.063 7.443c.021 3.57.068 7.138.12 10.708l.003 3.353c.117 6.172.453 9.926 4.606 14.608 5.766 5.08 9.491 5.451 17 5 5.58-1.263 9.401-3.614 12.613-8.407 1.976-5.118 1.867-9.892 1.899-15.335l.054-3.405c.054-3.576.088-7.152.122-10.728q.05-3.645.103-7.29.125-8.917.209-17.835h11q.034 14.055.052 28.111.007 6.525.023 13.052.016 6.293.02 12.585.003 2.406.01 4.812.01 3.36.009 6.717l.006 3.87C489 537 489 537 488 538a92 92 0 0 1-5.062.063l-2.786-.028L478 538l-1-7-2.562 2.313c-6.783 5.514-12.395 6.236-21.055 6.042-4.541-.477-7.683-1.744-11.383-4.355l-2.75-1.875c-6.305-5.955-8.738-13.488-9.51-21.997a207 207 0 0 1-.033-8.921l.013-3.249c.017-3.382.054-6.763.092-10.146q.024-3.465.042-6.931c.032-5.627.084-11.254.146-16.881"/><path fill="#F1F1F1" d="M372 465h52c0 11.202 0 11.202-3.75 15.125l-2.488 2.766-1.354 1.49c-2.63 3.024-4.968 6.27-7.346 9.494l-3.074 4.129-1.517 2.036c-2.929 3.903-5.928 7.753-8.924 11.605-3.59 4.73-7.055 9.553-10.547 14.355l39 1v10h-54c0-11.217 0-11.217 3.375-14.812l2.215-2.497L378 517a444 444 0 0 0 4.938-6.375l2.566-3.348c3.43-4.495 6.821-9.02 10.205-13.55q3.923-5.242 7.853-10.477L409 476h-37z"/><path fill="#FEFEFE" d="M241 438h10v90h44v9h-54z"/><path fill="#FBFBFB" d="M609 465v10l-2.414.113c-8.286.354-8.286.354-15.586 3.887-1.625 2.267-2.76 4.474-4 7l-1 2a83 83 0 0 0-.205 4.725l-.06 2.972-.051 3.217-.063 3.287q-.098 5.213-.183 10.424l-.131 7.055q-.161 8.66-.307 17.32h-9v-71h9v7h2l.563-1.75c4.968-7.776 13.247-6.693 21.437-6.25"/><path fill="#080808" d="M352 501c.449 8.227-.889 14.764-6.125 21.313-5.352 5.61-10.909 7.865-18.625 8.125-4.201-.182-7.04-.52-10.25-3.438-2.674-3.18-3.88-5.34-4.625-9.437.856-4.877 2.85-7.431 6.625-10.563 5.936-3.074 12.04-3.733 18.633-4.57q3.319-.423 6.617-.98c2.64-.432 5.082-.528 7.75-.45"/><path fill="#070707" d="M550 501c.49 7.411.136 12.732-4 19l-1.812 2.75c-5.258 5.408-11.215 7.377-18.625 7.5-4.35-.052-7.22-.22-10.563-3.25-3.162-3.707-3.543-7.138-3.332-11.855.544-3.514 1.6-4.868 4.332-7.145 9.407-5.69 23.158-7 34-7"/></svg>