<svg
    width="811"
    height="152"
    viewBox="0 0 811 152"
    fill="none"
    xmlns="http://www.w3.org/2000/svg"
>
<path
        d="M10.56 124V34.6H20.16V115H59.76V124H10.56ZM86.79 125.44C82.71 125.44 79.07 124.68 75.87 123.16C72.67 121.56 70.15 119.4 68.31 116.68C66.47 113.96 65.55 110.84 65.55 107.32C65.55 103.96 66.27 100.92 67.71 98.2C69.15 95.4 71.39 93.04 74.43 91.12C77.47 89.2 81.35 87.84 86.07 87.04L111.27 82.84V91L88.23 94.84C83.59 95.64 80.23 97.12 78.15 99.28C76.15 101.44 75.15 104 75.15 106.96C75.15 109.84 76.27 112.28 78.51 114.28C80.83 116.28 83.79 117.28 87.39 117.28C91.79 117.28 95.63 116.36 98.91 114.52C102.19 112.6 104.75 110.04 106.59 106.84C108.43 103.64 109.35 100.08 109.35 96.16V68.68H71.55V59.68H118.35V124H109.35V111.16L110.67 112.48C109.55 114.88 107.79 117.08 105.39 119.08C103.07 121 100.31 122.56 97.11 123.76C93.99 124.88 90.55 125.44 86.79 125.44ZM125.462 124V116.2L164.222 65.2L165.902 68.68H127.502V59.68H173.822V67.48L135.182 118.48L133.502 115H174.062V124H125.462ZM203.968 125.44C199.488 125.44 195.408 124.4 191.728 122.32C188.048 120.16 185.128 117.2 182.968 113.44C180.888 109.6 179.848 105.2 179.848 100.24V59.68H188.848V99.16C188.848 102.6 189.528 105.64 190.888 108.28C192.328 110.84 194.288 112.84 196.768 114.28C199.328 115.72 202.248 116.44 205.528 116.44C208.808 116.44 211.728 115.72 214.288 114.28C216.848 112.76 218.848 110.64 220.288 107.92C221.728 105.12 222.448 101.8 222.448 97.96V59.68H231.448V124H222.448V111.52L224.488 112C222.968 116.16 220.368 119.44 216.688 121.84C213.008 124.24 208.768 125.44 203.968 125.44ZM263.757 125.44C259.677 125.44 256.037 124.68 252.837 123.16C249.637 121.56 247.117 119.4 245.277 116.68C243.437 113.96 242.517 110.84 242.517 107.32C242.517 103.96 243.237 100.92 244.677 98.2C246.117 95.4 248.357 93.04 251.397 91.12C254.437 89.2 258.317 87.84 263.037 87.04L288.237 82.84V91L265.197 94.84C260.557 95.64 257.197 97.12 255.117 99.28C253.117 101.44 252.117 104 252.117 106.96C252.117 109.84 253.237 112.28 255.477 114.28C257.797 116.28 260.757 117.28 264.357 117.28C268.757 117.28 272.597 116.36 275.877 114.52C279.157 112.6 281.717 110.04 283.557 106.84C285.397 103.64 286.317 100.08 286.317 96.16V68.68H248.517V59.68H295.317V124H286.317V111.16L287.637 112.48C286.517 114.88 284.757 117.08 282.357 119.08C280.037 121 277.277 122.56 274.077 123.76C270.957 124.88 267.517 125.44 263.757 125.44ZM309.029 124V59.68H340.229V68.68H318.029V124H309.029ZM374.988 125.44C368.988 125.44 363.588 124 358.788 121.12C353.988 118.16 350.188 114.16 347.388 109.12C344.668 104 343.308 98.24 343.308 91.84C343.308 85.36 344.668 79.6 347.388 74.56C350.188 69.52 353.948 65.56 358.668 62.68C363.468 59.72 368.908 58.24 374.988 58.24C380.508 58.24 385.428 59.44 389.748 61.84C394.068 64.24 397.468 67.48 399.948 71.56L398.508 74.08V33.16H407.508V124H398.508V109.6L399.948 110.92C397.708 115.56 394.348 119.16 389.868 121.72C385.468 124.2 380.508 125.44 374.988 125.44ZM375.468 116.44C379.788 116.44 383.668 115.36 387.108 113.2C390.628 111.04 393.388 108.12 395.388 104.44C397.468 100.68 398.508 96.48 398.508 91.84C398.508 87.2 397.468 83.04 395.388 79.36C393.388 75.6 390.628 72.64 387.108 70.48C383.668 68.32 379.788 67.24 375.468 67.24C371.228 67.24 367.388 68.32 363.948 70.48C360.508 72.64 357.788 75.56 355.788 79.24C353.868 82.92 352.908 87.12 352.908 91.84C352.908 96.48 353.868 100.68 355.788 104.44C357.788 108.12 360.468 111.04 363.828 113.2C367.268 115.36 371.148 116.44 375.468 116.44ZM415.667 148V139.6H432.467L440.747 119.92L440.507 127.84L413.267 59.56H422.987L445.307 115.96H442.787L464.987 59.56H474.947L439.187 148H415.667Z"
        fill="white"
    />
<path
        opacity="0.8"
        d="M496.829 33.097H507.469C507.558 33.097 507.602 33.097 507.602 33.097C507.602 33.097 507.602 33.1413 507.602 33.23V43.87C507.602 43.9587 507.602 44.003 507.602 44.003C507.602 44.003 507.558 44.003 507.469 44.003H496.829C496.74 44.003 496.696 44.003 496.696 44.003C496.696 44.003 496.696 43.9587 496.696 43.87V33.23C496.696 33.1413 496.696 33.097 496.696 33.097C496.696 33.097 496.74 33.097 496.829 33.097ZM510.129 33.097H520.769C520.858 33.097 520.902 33.097 520.902 33.097C520.902 33.097 520.902 33.1413 520.902 33.23V43.87C520.902 43.9587 520.902 44.003 520.902 44.003C520.902 44.003 520.858 44.003 520.769 44.003H510.129C510.04 44.003 509.996 44.003 509.996 44.003C509.996 44.003 509.996 43.9587 509.996 43.87V33.23C509.996 33.1413 509.996 33.097 509.996 33.097C509.996 33.097 510.04 33.097 510.129 33.097ZM523.429 33.097H534.069C534.158 33.097 534.202 33.097 534.202 33.097C534.202 33.097 534.202 33.1413 534.202 33.23V43.87C534.202 43.9587 534.202 44.003 534.202 44.003C534.202 44.003 534.158 44.003 534.069 44.003H523.429C523.34 44.003 523.296 44.003 523.296 44.003C523.296 44.003 523.296 43.9587 523.296 43.87V33.23C523.296 33.1413 523.296 33.097 523.296 33.097C523.296 33.097 523.34 33.097 523.429 33.097ZM536.729 33.097H547.369C547.458 33.097 547.502 33.097 547.502 33.097C547.502 33.097 547.502 33.1413 547.502 33.23V43.87C547.502 43.9587 547.502 44.003 547.502 44.003C547.502 44.003 547.458 44.003 547.369 44.003H536.729C536.64 44.003 536.596 44.003 536.596 44.003C536.596 44.003 536.596 43.9587 536.596 43.87V33.23C536.596 33.1413 536.596 33.097 536.596 33.097C536.596 33.097 536.64 33.097 536.729 33.097ZM550.029 33.097H560.669C560.758 33.097 560.802 33.097 560.802 33.097C560.802 33.097 560.802 33.1413 560.802 33.23V43.87C560.802 43.9587 560.802 44.003 560.802 44.003C560.802 44.003 560.758 44.003 560.669 44.003H550.029C549.94 44.003 549.896 44.003 549.896 44.003C549.896 44.003 549.896 43.9587 549.896 43.87V33.23C549.896 33.1413 549.896 33.097 549.896 33.097C549.896 33.097 549.94 33.097 550.029 33.097ZM523.429 46.397H534.069C534.158 46.397 534.202 46.397 534.202 46.397C534.202 46.397 534.202 46.4413 534.202 46.53V57.17C534.202 57.2587 534.202 57.303 534.202 57.303C534.202 57.303 534.158 57.303 534.069 57.303H523.429C523.34 57.303 523.296 57.303 523.296 57.303C523.296 57.303 523.296 57.2587 523.296 57.17V46.53C523.296 46.4413 523.296 46.397 523.296 46.397C523.296 46.397 523.34 46.397 523.429 46.397ZM523.429 59.697H534.069C534.158 59.697 534.202 59.697 534.202 59.697C534.202 59.697 534.202 59.7413 534.202 59.83V70.47C534.202 70.5587 534.202 70.603 534.202 70.603C534.202 70.603 534.158 70.603 534.069 70.603H523.429C523.34 70.603 523.296 70.603 523.296 70.603C523.296 70.603 523.296 70.5587 523.296 70.47V59.83C523.296 59.7413 523.296 59.697 523.296 59.697C523.296 59.697 523.34 59.697 523.429 59.697ZM523.429 72.997H534.069C534.158 72.997 534.202 72.997 534.202 72.997C534.202 72.997 534.202 73.0413 534.202 73.13V83.77C534.202 83.8587 534.202 83.903 534.202 83.903C534.202 83.903 534.158 83.903 534.069 83.903H523.429C523.34 83.903 523.296 83.903 523.296 83.903C523.296 83.903 523.296 83.8587 523.296 83.77V73.13C523.296 73.0413 523.296 72.997 523.296 72.997C523.296 72.997 523.34 72.997 523.429 72.997ZM523.429 86.297H534.069C534.158 86.297 534.202 86.297 534.202 86.297C534.202 86.297 534.202 86.3413 534.202 86.43V97.07C534.202 97.1587 534.202 97.203 534.202 97.203C534.202 97.203 534.158 97.203 534.069 97.203H523.429C523.34 97.203 523.296 97.203 523.296 97.203C523.296 97.203 523.296 97.1587 523.296 97.07V86.43C523.296 86.3413 523.296 86.297 523.296 86.297C523.296 86.297 523.34 86.297 523.429 86.297ZM523.429 99.597H534.069C534.158 99.597 534.202 99.597 534.202 99.597C534.202 99.597 534.202 99.6413 534.202 99.73V110.37C534.202 110.459 534.202 110.503 534.202 110.503C534.202 110.503 534.158 110.503 534.069 110.503H523.429C523.34 110.503 523.296 110.503 523.296 110.503C523.296 110.503 523.296 110.459 523.296 110.37V99.73C523.296 99.6413 523.296 99.597 523.296 99.597C523.296 99.597 523.34 99.597 523.429 99.597ZM523.429 112.897H534.069C534.158 112.897 534.202 112.897 534.202 112.897C534.202 112.897 534.202 112.941 534.202 113.03V123.67C534.202 123.759 534.202 123.803 534.202 123.803C534.202 123.803 534.158 123.803 534.069 123.803H523.429C523.34 123.803 523.296 123.803 523.296 123.803C523.296 123.803 523.296 123.759 523.296 123.67V113.03C523.296 112.941 523.296 112.897 523.296 112.897C523.296 112.897 523.34 112.897 523.429 112.897ZM588.547 59.697H599.187C599.276 59.697 599.32 59.697 599.32 59.697C599.32 59.697 599.32 59.7413 599.32 59.83V70.47C599.32 70.5587 599.32 70.603 599.32 70.603C599.32 70.603 599.276 70.603 599.187 70.603H588.547C588.458 70.603 588.414 70.603 588.414 70.603C588.414 70.603 588.414 70.5587 588.414 70.47V59.83C588.414 59.7413 588.414 59.697 588.414 59.697C588.414 59.697 588.458 59.697 588.547 59.697ZM601.847 59.697H612.487C612.576 59.697 612.62 59.697 612.62 59.697C612.62 59.697 612.62 59.7413 612.62 59.83V70.47C612.62 70.5587 612.62 70.603 612.62 70.603C612.62 70.603 612.576 70.603 612.487 70.603H601.847C601.758 70.603 601.714 70.603 601.714 70.603C601.714 70.603 601.714 70.5587 601.714 70.47V59.83C601.714 59.7413 601.714 59.697 601.714 59.697C601.714 59.697 601.758 59.697 601.847 59.697ZM615.147 59.697H625.787C625.876 59.697 625.92 59.697 625.92 59.697C625.92 59.697 625.92 59.7413 625.92 59.83V70.47C625.92 70.5587 625.92 70.603 625.92 70.603C625.92 70.603 625.876 70.603 625.787 70.603H615.147C615.058 70.603 615.014 70.603 615.014 70.603C615.014 70.603 615.014 70.5587 615.014 70.47V59.83C615.014 59.7413 615.014 59.697 615.014 59.697C615.014 59.697 615.058 59.697 615.147 59.697ZM575.247 72.997H585.887C585.976 72.997 586.02 72.997 586.02 72.997C586.02 72.997 586.02 73.0413 586.02 73.13V83.77C586.02 83.8587 586.02 83.903 586.02 83.903C586.02 83.903 585.976 83.903 585.887 83.903H575.247C575.158 83.903 575.114 83.903 575.114 83.903C575.114 83.903 575.114 83.8587 575.114 83.77V73.13C575.114 73.0413 575.114 72.997 575.114 72.997C575.114 72.997 575.158 72.997 575.247 72.997ZM628.447 72.997H639.087C639.176 72.997 639.22 72.997 639.22 72.997C639.22 72.997 639.22 73.0413 639.22 73.13V83.77C639.22 83.8587 639.22 83.903 639.22 83.903C639.22 83.903 639.176 83.903 639.087 83.903H628.447C628.358 83.903 628.314 83.903 628.314 83.903C628.314 83.903 628.314 83.8587 628.314 83.77V73.13C628.314 73.0413 628.314 72.997 628.314 72.997C628.314 72.997 628.358 72.997 628.447 72.997ZM575.247 86.297H585.887C585.976 86.297 586.02 86.297 586.02 86.297C586.02 86.297 586.02 86.3413 586.02 86.43V97.07C586.02 97.1587 586.02 97.203 586.02 97.203C586.02 97.203 585.976 97.203 585.887 97.203H575.247C575.158 97.203 575.114 97.203 575.114 97.203C575.114 97.203 575.114 97.1587 575.114 97.07V86.43C575.114 86.3413 575.114 86.297 575.114 86.297C575.114 86.297 575.158 86.297 575.247 86.297ZM588.547 86.297H599.187C599.276 86.297 599.32 86.297 599.32 86.297C599.32 86.297 599.32 86.3413 599.32 86.43V97.07C599.32 97.1587 599.32 97.203 599.32 97.203C599.32 97.203 599.276 97.203 599.187 97.203H588.547C588.458 97.203 588.414 97.203 588.414 97.203C588.414 97.203 588.414 97.1587 588.414 97.07V86.43C588.414 86.3413 588.414 86.297 588.414 86.297C588.414 86.297 588.458 86.297 588.547 86.297ZM601.847 86.297H612.487C612.576 86.297 612.62 86.297 612.62 86.297C612.62 86.297 612.62 86.3413 612.62 86.43V97.07C612.62 97.1587 612.62 97.203 612.62 97.203C612.62 97.203 612.576 97.203 612.487 97.203H601.847C601.758 97.203 601.714 97.203 601.714 97.203C601.714 97.203 601.714 97.1587 601.714 97.07V86.43C601.714 86.3413 601.714 86.297 601.714 86.297C601.714 86.297 601.758 86.297 601.847 86.297ZM615.147 86.297H625.787C625.876 86.297 625.92 86.297 625.92 86.297C625.92 86.297 625.92 86.3413 625.92 86.43V97.07C625.92 97.1587 625.92 97.203 625.92 97.203C625.92 97.203 625.876 97.203 625.787 97.203H615.147C615.058 97.203 615.014 97.203 615.014 97.203C615.014 97.203 615.014 97.1587 615.014 97.07V86.43C615.014 86.3413 615.014 86.297 615.014 86.297C615.014 86.297 615.058 86.297 615.147 86.297ZM628.447 86.297H639.087C639.176 86.297 639.22 86.297 639.22 86.297C639.22 86.297 639.22 86.3413 639.22 86.43V97.07C639.22 97.1587 639.22 97.203 639.22 97.203C639.22 97.203 639.176 97.203 639.087 97.203H628.447C628.358 97.203 628.314 97.203 628.314 97.203C628.314 97.203 628.314 97.1587 628.314 97.07V86.43C628.314 86.3413 628.314 86.297 628.314 86.297C628.314 86.297 628.358 86.297 628.447 86.297ZM575.247 99.597H585.887C585.976 99.597 586.02 99.597 586.02 99.597C586.02 99.597 586.02 99.6413 586.02 99.73V110.37C586.02 110.459 586.02 110.503 586.02 110.503C586.02 110.503 585.976 110.503 585.887 110.503H575.247C575.158 110.503 575.114 110.503 575.114 110.503C575.114 110.503 575.114 110.459 575.114 110.37V99.73C575.114 99.6413 575.114 99.597 575.114 99.597C575.114 99.597 575.158 99.597 575.247 99.597ZM588.547 112.897H599.187C599.276 112.897 599.32 112.897 599.32 112.897C599.32 112.897 599.32 112.941 599.32 113.03V123.67C599.32 123.759 599.32 123.803 599.32 123.803C599.32 123.803 599.276 123.803 599.187 123.803H588.547C588.458 123.803 588.414 123.803 588.414 123.803C588.414 123.803 588.414 123.759 588.414 123.67V113.03C588.414 112.941 588.414 112.897 588.414 112.897C588.414 112.897 588.458 112.897 588.547 112.897ZM601.847 112.897H612.487C612.576 112.897 612.62 112.897 612.62 112.897C612.62 112.897 612.62 112.941 612.62 113.03V123.67C612.62 123.759 612.62 123.803 612.62 123.803C612.62 123.803 612.576 123.803 612.487 123.803H601.847C601.758 123.803 601.714 123.803 601.714 123.803C601.714 123.803 601.714 123.759 601.714 123.67V113.03C601.714 112.941 601.714 112.897 601.714 112.897C601.714 112.897 601.758 112.897 601.847 112.897ZM615.147 112.897H625.787C625.876 112.897 625.92 112.897 625.92 112.897C625.92 112.897 625.92 112.941 625.92 113.03V123.67C625.92 123.759 625.92 123.803 625.92 123.803C625.92 123.803 625.876 123.803 625.787 123.803H615.147C615.058 123.803 615.014 123.803 615.014 123.803C615.014 123.803 615.014 123.759 615.014 123.67V113.03C615.014 112.941 615.014 112.897 615.014 112.897C615.014 112.897 615.058 112.897 615.147 112.897ZM666.965 59.697H677.605C677.694 59.697 677.738 59.697 677.738 59.697C677.738 59.697 677.738 59.7413 677.738 59.83V70.47C677.738 70.5587 677.738 70.603 677.738 70.603C677.738 70.603 677.694 70.603 677.605 70.603H666.965C666.876 70.603 666.832 70.603 666.832 70.603C666.832 70.603 666.832 70.5587 666.832 70.47V59.83C666.832 59.7413 666.832 59.697 666.832 59.697C666.832 59.697 666.876 59.697 666.965 59.697ZM680.265 59.697H690.905C690.994 59.697 691.038 59.697 691.038 59.697C691.038 59.697 691.038 59.7413 691.038 59.83V70.47C691.038 70.5587 691.038 70.603 691.038 70.603C691.038 70.603 690.994 70.603 690.905 70.603H680.265C680.176 70.603 680.132 70.603 680.132 70.603C680.132 70.603 680.132 70.5587 680.132 70.47V59.83C680.132 59.7413 680.132 59.697 680.132 59.697C680.132 59.697 680.176 59.697 680.265 59.697ZM693.565 59.697H704.205C704.294 59.697 704.338 59.697 704.338 59.697C704.338 59.697 704.338 59.7413 704.338 59.83V70.47C704.338 70.5587 704.338 70.603 704.338 70.603C704.338 70.603 704.294 70.603 704.205 70.603H693.565C693.476 70.603 693.432 70.603 693.432 70.603C693.432 70.603 693.432 70.5587 693.432 70.47V59.83C693.432 59.7413 693.432 59.697 693.432 59.697C693.432 59.697 693.476 59.697 693.565 59.697ZM653.665 72.997H664.305C664.394 72.997 664.438 72.997 664.438 72.997C664.438 72.997 664.438 73.0413 664.438 73.13V83.77C664.438 83.8587 664.438 83.903 664.438 83.903C664.438 83.903 664.394 83.903 664.305 83.903H653.665C653.576 83.903 653.532 83.903 653.532 83.903C653.532 83.903 653.532 83.8587 653.532 83.77V73.13C653.532 73.0413 653.532 72.997 653.532 72.997C653.532 72.997 653.576 72.997 653.665 72.997ZM706.865 72.997H717.505C717.594 72.997 717.638 72.997 717.638 72.997C717.638 72.997 717.638 73.0413 717.638 73.13V83.77C717.638 83.8587 717.638 83.903 717.638 83.903C717.638 83.903 717.594 83.903 717.505 83.903H706.865C706.776 83.903 706.732 83.903 706.732 83.903C706.732 83.903 706.732 83.8587 706.732 83.77V73.13C706.732 73.0413 706.732 72.997 706.732 72.997C706.732 72.997 706.776 72.997 706.865 72.997ZM653.665 86.297H664.305C664.394 86.297 664.438 86.297 664.438 86.297C664.438 86.297 664.438 86.3413 664.438 86.43V97.07C664.438 97.1587 664.438 97.203 664.438 97.203C664.438 97.203 664.394 97.203 664.305 97.203H653.665C653.576 97.203 653.532 97.203 653.532 97.203C653.532 97.203 653.532 97.1587 653.532 97.07V86.43C653.532 86.3413 653.532 86.297 653.532 86.297C653.532 86.297 653.576 86.297 653.665 86.297ZM653.665 99.597H664.305C664.394 99.597 664.438 99.597 664.438 99.597C664.438 99.597 664.438 99.6413 664.438 99.73V110.37C664.438 110.459 664.438 110.503 664.438 110.503C664.438 110.503 664.394 110.503 664.305 110.503H653.665C653.576 110.503 653.532 110.503 653.532 110.503C653.532 110.503 653.532 110.459 653.532 110.37V99.73C653.532 99.6413 653.532 99.597 653.532 99.597C653.532 99.597 653.576 99.597 653.665 99.597ZM706.865 99.597H717.505C717.594 99.597 717.638 99.597 717.638 99.597C717.638 99.597 717.638 99.6413 717.638 99.73V110.37C717.638 110.459 717.638 110.503 717.638 110.503C717.638 110.503 717.594 110.503 717.505 110.503H706.865C706.776 110.503 706.732 110.503 706.732 110.503C706.732 110.503 706.732 110.459 706.732 110.37V99.73C706.732 99.6413 706.732 99.597 706.732 99.597C706.732 99.597 706.776 99.597 706.865 99.597ZM666.965 112.897H677.605C677.694 112.897 677.738 112.897 677.738 112.897C677.738 112.897 677.738 112.941 677.738 113.03V123.67C677.738 123.759 677.738 123.803 677.738 123.803C677.738 123.803 677.694 123.803 677.605 123.803H666.965C666.876 123.803 666.832 123.803 666.832 123.803C666.832 123.803 666.832 123.759 666.832 123.67V113.03C666.832 112.941 666.832 112.897 666.832 112.897C666.832 112.897 666.876 112.897 666.965 112.897ZM680.265 112.897H690.905C690.994 112.897 691.038 112.897 691.038 112.897C691.038 112.897 691.038 112.941 691.038 113.03V123.67C691.038 123.759 691.038 123.803 691.038 123.803C691.038 123.803 690.994 123.803 690.905 123.803H680.265C680.176 123.803 680.132 123.803 680.132 123.803C680.132 123.803 680.132 123.759 680.132 123.67V113.03C680.132 112.941 680.132 112.897 680.132 112.897C680.132 112.897 680.176 112.897 680.265 112.897ZM693.565 112.897H704.205C704.294 112.897 704.338 112.897 704.338 112.897C704.338 112.897 704.338 112.941 704.338 113.03V123.67C704.338 123.759 704.338 123.803 704.338 123.803C704.338 123.803 704.294 123.803 704.205 123.803H693.565C693.476 123.803 693.432 123.803 693.432 123.803C693.432 123.803 693.432 123.759 693.432 123.67V113.03C693.432 112.941 693.432 112.897 693.432 112.897C693.432 112.897 693.476 112.897 693.565 112.897ZM732.083 33.097H742.723C742.812 33.097 742.856 33.097 742.856 33.097C742.856 33.097 742.856 33.1413 742.856 33.23V43.87C742.856 43.9587 742.856 44.003 742.856 44.003C742.856 44.003 742.812 44.003 742.723 44.003H732.083C731.994 44.003 731.95 44.003 731.95 44.003C731.95 44.003 731.95 43.9587 731.95 43.87V33.23C731.95 33.1413 731.95 33.097 731.95 33.097C731.95 33.097 731.994 33.097 732.083 33.097ZM732.083 46.397H742.723C742.812 46.397 742.856 46.397 742.856 46.397C742.856 46.397 742.856 46.4413 742.856 46.53V57.17C742.856 57.2587 742.856 57.303 742.856 57.303C742.856 57.303 742.812 57.303 742.723 57.303H732.083C731.994 57.303 731.95 57.303 731.95 57.303C731.95 57.303 731.95 57.2587 731.95 57.17V46.53C731.95 46.4413 731.95 46.397 731.95 46.397C731.95 46.397 731.994 46.397 732.083 46.397ZM732.083 59.697H742.723C742.812 59.697 742.856 59.697 742.856 59.697C742.856 59.697 742.856 59.7413 742.856 59.83V70.47C742.856 70.5587 742.856 70.603 742.856 70.603C742.856 70.603 742.812 70.603 742.723 70.603H732.083C731.994 70.603 731.95 70.603 731.95 70.603C731.95 70.603 731.95 70.5587 731.95 70.47V59.83C731.95 59.7413 731.95 59.697 731.95 59.697C731.95 59.697 731.994 59.697 732.083 59.697ZM758.683 59.697H769.323C769.412 59.697 769.456 59.697 769.456 59.697C769.456 59.697 769.456 59.7413 769.456 59.83V70.47C769.456 70.5587 769.456 70.603 769.456 70.603C769.456 70.603 769.412 70.603 769.323 70.603H758.683C758.594 70.603 758.55 70.603 758.55 70.603C758.55 70.603 758.55 70.5587 758.55 70.47V59.83C758.55 59.7413 758.55 59.697 758.55 59.697C758.55 59.697 758.594 59.697 758.683 59.697ZM771.983 59.697H782.623C782.712 59.697 782.756 59.697 782.756 59.697C782.756 59.697 782.756 59.7413 782.756 59.83V70.47C782.756 70.5587 782.756 70.603 782.756 70.603C782.756 70.603 782.712 70.603 782.623 70.603H771.983C771.894 70.603 771.85 70.603 771.85 70.603C771.85 70.603 771.85 70.5587 771.85 70.47V59.83C771.85 59.7413 771.85 59.697 771.85 59.697C771.85 59.697 771.894 59.697 771.983 59.697ZM732.083 72.997H742.723C742.812 72.997 742.856 72.997 742.856 72.997C742.856 72.997 742.856 73.0413 742.856 73.13V83.77C742.856 83.8587 742.856 83.903 742.856 83.903C742.856 83.903 742.812 83.903 742.723 83.903H732.083C731.994 83.903 731.95 83.903 731.95 83.903C731.95 83.903 731.95 83.8587 731.95 83.77V73.13C731.95 73.0413 731.95 72.997 731.95 72.997C731.95 72.997 731.994 72.997 732.083 72.997ZM745.383 72.997H756.023C756.112 72.997 756.156 72.997 756.156 72.997C756.156 72.997 756.156 73.0413 756.156 73.13V83.77C756.156 83.8587 756.156 83.903 756.156 83.903C756.156 83.903 756.112 83.903 756.023 83.903H745.383C745.294 83.903 745.25 83.903 745.25 83.903C745.25 83.903 745.25 83.8587 745.25 83.77V73.13C745.25 73.0413 745.25 72.997 745.25 72.997C745.25 72.997 745.294 72.997 745.383 72.997ZM785.283 72.997H795.923C796.012 72.997 796.056 72.997 796.056 72.997C796.056 72.997 796.056 73.0413 796.056 73.13V83.77C796.056 83.8587 796.056 83.903 796.056 83.903C796.056 83.903 796.012 83.903 795.923 83.903H785.283C785.194 83.903 785.15 83.903 785.15 83.903C785.15 83.903 785.15 83.8587 785.15 83.77V73.13C785.15 73.0413 785.15 72.997 785.15 72.997C785.15 72.997 785.194 72.997 785.283 72.997ZM732.083 86.297H742.723C742.812 86.297 742.856 86.297 742.856 86.297C742.856 86.297 742.856 86.3413 742.856 86.43V97.07C742.856 97.1587 742.856 97.203 742.856 97.203C742.856 97.203 742.812 97.203 742.723 97.203H732.083C731.994 97.203 731.95 97.203 731.95 97.203C731.95 97.203 731.95 97.1587 731.95 97.07V86.43C731.95 86.3413 731.95 86.297 731.95 86.297C731.95 86.297 731.994 86.297 732.083 86.297ZM785.283 86.297H795.923C796.012 86.297 796.056 86.297 796.056 86.297C796.056 86.297 796.056 86.3413 796.056 86.43V97.07C796.056 97.1587 796.056 97.203 796.056 97.203C796.056 97.203 796.012 97.203 795.923 97.203H785.283C785.194 97.203 785.15 97.203 785.15 97.203C785.15 97.203 785.15 97.1587 785.15 97.07V86.43C785.15 86.3413 785.15 86.297 785.15 86.297C785.15 86.297 785.194 86.297 785.283 86.297ZM732.083 99.597H742.723C742.812 99.597 742.856 99.597 742.856 99.597C742.856 99.597 742.856 99.6413 742.856 99.73V110.37C742.856 110.459 742.856 110.503 742.856 110.503C742.856 110.503 742.812 110.503 742.723 110.503H732.083C731.994 110.503 731.95 110.503 731.95 110.503C731.95 110.503 731.95 110.459 731.95 110.37V99.73C731.95 99.6413 731.95 99.597 731.95 99.597C731.95 99.597 731.994 99.597 732.083 99.597ZM785.283 99.597H795.923C796.012 99.597 796.056 99.597 796.056 99.597C796.056 99.597 796.056 99.6413 796.056 99.73V110.37C796.056 110.459 796.056 110.503 796.056 110.503C796.056 110.503 796.012 110.503 795.923 110.503H785.283C785.194 110.503 785.15 110.503 785.15 110.503C785.15 110.503 785.15 110.459 785.15 110.37V99.73C785.15 99.6413 785.15 99.597 785.15 99.597C785.15 99.597 785.194 99.597 785.283 99.597ZM732.083 112.897H742.723C742.812 112.897 742.856 112.897 742.856 112.897C742.856 112.897 742.856 112.941 742.856 113.03V123.67C742.856 123.759 742.856 123.803 742.856 123.803C742.856 123.803 742.812 123.803 742.723 123.803H732.083C731.994 123.803 731.95 123.803 731.95 123.803C731.95 123.803 731.95 123.759 731.95 123.67V113.03C731.95 112.941 731.95 112.897 731.95 112.897C731.95 112.897 731.994 112.897 732.083 112.897ZM785.283 112.897H795.923C796.012 112.897 796.056 112.897 796.056 112.897C796.056 112.897 796.056 112.941 796.056 113.03V123.67C796.056 123.759 796.056 123.803 796.056 123.803C796.056 123.803 796.012 123.803 795.923 123.803H785.283C785.194 123.803 785.15 123.803 785.15 123.803C785.15 123.803 785.15 123.759 785.15 123.67V113.03C785.15 112.941 785.15 112.897 785.15 112.897C785.15 112.897 785.194 112.897 785.283 112.897Z"
        fill="white"
    />
</svg>
