<svg
    width="183"
    height="89"
    viewBox="0 0 183 89"
    fill="white"
    xmlns="http://www.w3.org/2000/svg"
>
<g clip-path="url(#clip0_25_572)">
<path
            d="M25.8014 17.9765C28.7061 18.6651 31.6125 19.3362 34.5207 19.9898C34.9716 20.0912 35.3124 20.3166 35.5431 20.6662C35.6453 20.821 35.7026 21.0009 35.709 21.1863C35.7154 21.3716 35.6706 21.5555 35.5794 21.718C35.4882 21.8804 35.354 22.0153 35.1915 22.1081C35.0289 22.2009 34.8441 22.248 34.657 22.2443C31.9306 22.1954 28.8984 22.1692 25.5603 22.1657C24.994 22.1622 24.5868 22.3108 24.3386 22.6114C24.1797 22.8039 24.101 23.0506 24.1185 23.301C24.1361 23.5514 24.2485 23.7866 24.433 23.9588C26.4848 25.8638 28.748 27.4 31.2228 28.5675C31.2807 28.5936 31.3301 28.6353 31.3656 28.6879C31.4011 28.7406 31.4213 28.8022 31.424 28.866C31.4267 28.9299 31.4118 28.9935 31.3809 29.05C31.3501 29.1065 31.3044 29.1536 31.249 29.1862L30.9449 29.3592C30.8143 29.4351 30.669 29.4832 30.5184 29.5003C30.3677 29.5175 30.2148 29.5033 30.0693 29.4588C27.7973 28.7493 25.7944 28.1708 24.0607 27.7234C18.4297 26.2658 12.6151 31.5141 10.4497 35.9393C6.34958 44.3282 8.58314 53.75 16.4268 59.0613C24.5431 64.5613 35.6637 62.0918 41.0116 54.1013C44.3724 49.0837 44.9387 42.7448 42.6317 37.1347C41.0798 33.3597 37.3415 28.9817 33.4459 27.2829C31.5374 26.4493 29.8124 25.4741 28.3915 24.5094C28.3719 24.4972 28.3569 24.479 28.3487 24.4575C28.3405 24.436 28.3396 24.4124 28.3462 24.3903C28.3528 24.3682 28.3664 24.349 28.385 24.3354C28.4036 24.3219 28.4262 24.3148 28.4492 24.3154C32.2522 24.2245 35.6567 24.3293 38.6627 24.6299C41.9816 24.9603 44.9859 27.2462 47.0307 30.1562C54.9163 41.3816 51.7285 56.6442 40.8438 64.6347C28.7113 73.5322 11.3934 69.343 4.21565 56.3611C-3.57033 42.2834 3.48686 25.5213 18.3667 20.2782C18.6457 20.1771 18.9144 20.0489 19.1689 19.8954C20.6824 18.9796 22.3148 18.34 24.066 17.9765H25.8014ZM27.1384 19.2558L25.2195 18.9884C25.2108 18.9869 25.2019 18.9872 25.1934 18.9894C25.1848 18.9916 25.1769 18.9955 25.1699 19.0009C25.163 19.0064 25.1573 19.0132 25.1532 19.021C25.1491 19.0287 25.1467 19.0373 25.146 19.0461L25.1408 19.0828C25.1091 19.3125 25.1807 19.547 25.3399 19.7347C25.4991 19.9225 25.733 20.0481 25.9902 20.0842L26.095 20.0947C26.3518 20.1302 26.6107 20.0735 26.8151 19.9369C27.0194 19.8003 27.1527 19.595 27.1856 19.3659L27.1909 19.3292C27.1924 19.3209 27.1922 19.3124 27.1903 19.3042C27.1885 19.296 27.185 19.2883 27.1801 19.2814C27.1753 19.2746 27.169 19.2688 27.1619 19.2644C27.1547 19.26 27.1467 19.2571 27.1384 19.2558Z"
            fill="white"
        />
</g>
<path
        d="M85.3483 62.0877C81.6272 65.6471 78.4724 66.2133 72.9716 66.2133C65.4485 66.2133 58.249 61.4406 58.249 52.2997V24.5532H65.2868V47.4461C65.2868 55.9399 69.0078 59.6609 74.4277 59.6609C80.3329 59.6609 87.2897 56.1016 87.2897 47.4461V24.5532H94.4083V64.9999H87.2897L87.3706 62.8967C87.4515 60.9552 88.584 58.7711 89.3121 56.9915L87.9369 56.5061C87.2897 58.2858 86.6426 60.7126 85.3483 62.0877ZM113.97 28.0317C117.772 24.1488 121.493 23.3398 130.23 23.3398V30.054C120.765 30.054 111.381 33.2088 111.381 44.3721V64.9999H104.344V24.5532H111.381V27.0609C111.381 29.4068 110.168 32.2381 109.359 34.4222L110.653 34.9076C111.462 32.7235 112.271 29.6495 113.97 28.0317ZM167.726 60.9552C164.652 64.2719 160.202 66.2942 154.702 66.2942C142.568 66.2942 133.993 56.587 133.993 44.5339C133.993 32.4808 142.568 23.3398 154.702 23.3398C160.202 23.3398 164.571 25.2004 167.645 28.3552C169.343 30.1349 169.91 33.3706 170.719 35.7165L172.094 35.2312C171.285 32.9662 169.991 30.054 169.91 27.6272L169.748 24.5532H176.866V64.9999H169.748L169.91 61.6833C169.991 59.2565 171.285 56.3443 172.013 53.9984L170.719 53.594C169.91 55.859 169.343 59.0947 167.726 60.9552ZM141.031 44.5339C141.031 52.7041 146.046 59.5801 154.863 59.5801C163.6 59.5801 168.373 52.2997 168.777 44.5339C168.777 35.6356 163.762 30.054 154.863 30.054C145.965 30.054 141.031 36.2828 141.031 44.5339Z"
        fill="white"
    />
<defs>
<clipPath id="clip0_25_572">
<rect
                width="52.4309"
                height="52.4309"
                fill="white"
                transform="translate(0.00012207 17.9765)"
            />
</clipPath>
</defs>
</svg>
